HIERARCHY
ROOT hip
{
  OFFSET 0 0 0
  CHANNELS 6 Xposition Yposition Zposition Zrotation Yrotation Xrotation
  JOINT abdomen
  {
    OFFSET 0 20.6881 -0.73152
    CHANNELS 3 Zrotation Xrotation Yrotation
    JOINT chest
    {
      OFFSET 0 11.7043 -0.48768
      CHANNELS 3 Zrotation Xrotation Yrotation
      JOINT neck
      {
        OFFSET 0 22.1894 -2.19456
        CHANNELS 3 Zrotation Xrotation Yrotation
        JOINT head
        {
          OFFSET -0.24384 7.07133 1.2192
          CHANNELS 3 Zrotation Xrotation Yrotation
          JOINT leftEye
          {
            OFFSET 4.14528 8.04674 8.04672
            CHANNELS 3 Zrotation Xrotation Yrotation
            End Site
            {
              OFFSET 1 0 0
            }
          }
          JOINT rightEye
          {
            OFFSET -3.6576 8.04674 8.04672
            CHANNELS 3 Zrotation Xrotation Yrotation
            End Site
            {
              OFFSET 1 0 0
            }
          }
        }
      }
      JOINT rCollar
      {
        OFFSET -2.68224 19.2634 -4.8768
        CHANNELS 3 Zrotation Xrotation Yrotation
        JOINT rShldr
        {
          OFFSET -8.77824 -1.95073 1.46304
          CHANNELS 3 Zrotation Xrotation Yrotation
          JOINT rForeArm
          {
            OFFSET -28.1742 -1.7115 0.48768
            CHANNELS 3 Zrotation Xrotation Yrotation
            JOINT rHand
            {
              OFFSET -22.5879 0.773209 7.07136
              CHANNELS 3 Zrotation Xrotation Yrotation
              JOINT rThumb1
              {
                OFFSET -1.2192 -0.487915 3.41376
                CHANNELS 3 Zrotation Xrotation Yrotation
                JOINT rThumb2
                {
                  OFFSET -3.37035 -0.52449 3.41376
                  CHANNELS 3 Zrotation Xrotation Yrotation
                  End Site
                  {
                    OFFSET -1.78271 -1.18214 1.43049
                  }
                }
              }
              JOINT rIndex1
              {
                OFFSET -7.75947 0.938293 5.60832
                CHANNELS 3 Zrotation Xrotation Yrotation
                JOINT rIndex2
                {
                  OFFSET -2.54057 -0.884171 1.56538
                  CHANNELS 3 Zrotation Xrotation Yrotation
                  End Site
                  {
                    OFFSET -1.62519 -0.234802 1.16502
                  }
                }
              }
              JOINT rMid1
              {
                OFFSET -8.24714 1.18213 3.41376
                CHANNELS 3 Zrotation Xrotation Yrotation
                JOINT rMid2
                {
                  OFFSET -3.10165 -0.590103 1.0647
                  CHANNELS 3 Zrotation Xrotation Yrotation
                  End Site
                  {
                    OFFSET -2.48547 -0.328903 0.83742
                  }
                }
              }
              JOINT rRing1
              {
                OFFSET -8.82822 0.546677 1.51678
                CHANNELS 3 Zrotation Xrotation Yrotation
                JOINT rRing2
                {
                  OFFSET -2.60934 -0.819778 -0.0198488
                  CHANNELS 3 Zrotation Xrotation Yrotation
                  End Site
                  {
                    OFFSET -2.33842 -0.294052 0.168128
                  }
                }
              }
              JOINT rPinky1
              {
                OFFSET -8.27202 -0.0477905 -0.4584
                CHANNELS 3 Zrotation Xrotation Yrotation
                JOINT rPinky2
                {
                  OFFSET -1.82734 -0.647385 -0.700984
                  CHANNELS 3 Zrotation Xrotation Yrotation
                  End Site
                  {
                    OFFSET -1.69225 -0.51767 -0.607171
                  }
                }
              }
            }
          }
        }
      }
      JOINT lCollar
      {
        OFFSET 2.68224 19.2634 -4.8768
        CHANNELS 3 Zrotation Xrotation Yrotation
        JOINT lShldr
        {
          OFFSET 8.77824 -1.95073 1.46304
          CHANNELS 3 Zrotation Xrotation Yrotation
          JOINT lForeArm
          {
            OFFSET 28.1742 -1.7115 0.48768
            CHANNELS 3 Zrotation Xrotation Yrotation
            JOINT lHand
            {
              OFFSET 22.5879 0.773209 7.07136
              CHANNELS 3 Zrotation Xrotation Yrotation
              JOINT lThumb1
              {
                OFFSET 1.2192 -0.487915 3.41376
                CHANNELS 3 Zrotation Xrotation Yrotation
                JOINT lThumb2
                {
                  OFFSET 3.37035 -0.52449 3.41376
                  CHANNELS 3 Zrotation Xrotation Yrotation
                  End Site
                  {
                    OFFSET 1.78271 -1.18214 1.43049
                  }
                }
              }
              JOINT lIndex1
              {
                OFFSET 7.75947 0.938293 5.60832
                CHANNELS 3 Zrotation Xrotation Yrotation
                JOINT lIndex2
                {
                  OFFSET 2.54057 -0.884171 1.56538
                  CHANNELS 3 Zrotation Xrotation Yrotation
                  End Site
                  {
                    OFFSET 1.62519 -0.234802 1.16502
                  }
                }
              }
              JOINT lMid1
              {
                OFFSET 8.24714 1.18213 3.41376
                CHANNELS 3 Zrotation Xrotation Yrotation
                JOINT lMid2
                {
                  OFFSET 3.10165 -0.590103 1.0647
                  CHANNELS 3 Zrotation Xrotation Yrotation
                  End Site
                  {
                    OFFSET 2.48547 -0.328903 0.83742
                  }
                }
              }
              JOINT lRing1
              {
                OFFSET 8.82822 0.546677 1.51678
                CHANNELS 3 Zrotation Xrotation Yrotation
                JOINT lRing2
                {
                  OFFSET 2.60934 -0.819778 -0.0198488
                  CHANNELS 3 Zrotation Xrotation Yrotation
                  End Site
                  {
                    OFFSET 2.33842 -0.294052 0.168128
                  }
                }
              }
              JOINT lPinky1
              {
                OFFSET 8.27202 -0.0477905 -0.4584
                CHANNELS 3 Zrotation Xrotation Yrotation
                JOINT lPinky2
                {
                  OFFSET 1.82734 -0.647385 -0.700984
                  CHANNELS 3 Zrotation Xrotation Yrotation
                  End Site
                  {
                    OFFSET 1.69225 -0.51767 -0.607171
                  }
                }
              }
            }
          }
        }
      }
    }
  }
  JOINT rButtock
  {
    OFFSET -8.77824 4.35084 1.2192
    CHANNELS 3 Zrotation Xrotation Yrotation
    JOINT rThigh
    {
      OFFSET 0 -1.70687 -2.19456
      CHANNELS 3 Zrotation Xrotation Yrotation
      JOINT rShin
      {
        OFFSET 0 -36.8199 0.73152
        CHANNELS 3 Zrotation Xrotation Yrotation
        JOINT rFoot
        {
          OFFSET 0.73152 -45.1104 -5.12064
          CHANNELS 3 Zrotation Xrotation Yrotation
          End Site
          {
            OFFSET -1.1221 -3.69964 12.103
          }
        }
      }
    }
  }
  JOINT lButtock
  {
    OFFSET 8.77824 4.35084 1.2192
    CHANNELS 3 Zrotation Xrotation Yrotation
    JOINT lThigh
    {
      OFFSET 0 -1.70687 -2.19456
      CHANNELS 3 Zrotation Xrotation Yrotation
      JOINT lShin
      {
        OFFSET 0 -36.8199 0.73152
        CHANNELS 3 Zrotation Xrotation Yrotation
        JOINT lFoot
        {
          OFFSET -0.73152 -45.1104 -5.12064
          CHANNELS 3 Zrotation Xrotation Yrotation
          End Site
          {
            OFFSET 1.1221 -3.69964 12.103
          }
        }
      }
    }
  }
}
MOTION
Frames:	4
Frame Time:	0.03333
-14.6509 49.3951 15.2645 -167.422341 19.329325 -167.165244 8.667854 5.781929 123.458112 -5.505472 -0.863584 -116.143816 -9.012873 25.085072 -70.917988 42.27792 -1.905529 76.851447 0.451494 -0.022356 -5.669364 3.210357 -0.256153 -9.121534 -31.500386 68.323863 34.856175 158.555164 -55.673197 91.886491 -9.338767 63.101346 104.423874 -6.244902 -22.762511 -7.662506 -171.705358 -16.133549 90.474207 -61.873164 4.142737 26.263327 2.313708 16.6246 -7.069033 -88.623052 36.240415 45.073614 -9.897666 15.911922 5.962123 41.179796 -56.162517 19.003012 -7.027159 1.182114 -5.001912 16.125328 0.959334 5.288545 -21.846549 72.804472 52.440341 -137.669605 14.281524 -142.334768 -1.721519 -3.299015 -3.594269 -37.479434 33.916708 -36.828752 -27.86974 -43.607105 -57.064546 22.320831 63.965736 -11.044623 12.277247 12.603607 -1.902886 33.50486 20.288746 -41.842624 151.936327 -10.641755 -122.752617 52.155549 57.072221 -43.463226 -6.348265 -3.014485 -0.658783 -1.18838 -24.957848 6.126399 141.057806 9.874972 -173.353475 145.457715 -3.456186 174.784665 151.570391 13.821039 137.816155 140.524331 -11.074296 121.069432 0.024298 3.538787 -0.393649 -9.40796 5.252394 -0.0 -5.786914 37.321121 -8.839585 59.851217 -35.586328 -8.018388 23.015244 -4.059175 10.745897 47.213172 -64.72871 -0.0 -75.363339 36.515676 149.343991 -7.697201 11.018069 -63.727913
-15.0756 49.5225 15.7345 -167.635626 18.93458 -166.951064 8.598006 8.252421 54.792661 -3.422458 -6.653294 -46.474781 6.881458 16.820227 34.565099 -24.319504 -23.83051 -36.919396 1.185643 -0.031529 -3.046404 5.325478 -0.407844 -8.75249 0.628619 -35.87821 -15.618586 -2.084468 -31.060001 -54.409392 -106.872227 74.106343 -157.83472 -3.638745 -30.533745 -7.703737 9.84106 -2.362274 -2.122904 -144.120531 -23.260588 109.643208 32.141698 -76.36004 -21.059151 -144.204889 -22.460487 98.107874 -163.763308 -4.701492 141.228001 -167.260751 -2.048024 149.736719 -7.502624 1.569716 -6.642697 -138.539369 33.240406 157.312832 -24.096325 -42.780882 -13.077265 -146.487551 -4.132393 -131.56558 151.506722 7.634358 -154.152992 -149.187452 -15.125396 172.273993 7.081543 -9.932955 -39.685344 4.712003 31.165085 -0.905549 159.449421 2.342306 -90.270134 24.748873 -40.372376 -8.519921 -165.826259 -70.580489 -112.940621 -111.738769 -63.874448 -49.612076 -5.374351 0.674854 -1.468394 35.894296 57.179548 -21.053517 139.696493 11.657957 -172.874468 -26.447728 28.032737 12.260926 -19.41452 62.019083 -4.286188 3.374584 32.662028 -20.68867 0.441335 2.050272 0.458 -9.594346 6.200341 57.423499 33.280721 28.317169 -119.614896 -22.153437 -25.322085 27.511892 -0.80235 -4.582261 -9.942774 83.266891 -48.359704 -10.755682 -74.654796 10.468576 125.644095 62.976382 -41.035806 -38.109463
-15.724499999999999 49.9963 15.9247 -168.964334 20.316441 -168.240109 8.524656 10.235043 0.0 2.0964 -7.488336 7.263991 -5.325213 18.310344 -25.524868 22.874688 -27.142058 30.759287 9.295923 0.69497 8.532453 10.191395 0.127531 1.430096 -154.627803 -14.138972 169.606297 -49.837795 17.043441 20.651441 -170.138769 27.66428 -97.006172 -4.740607 -20.577958 -7.802011 -162.879665 -9.867162 90.74599 -163.180509 -22.907681 88.181688 29.818609 -64.633669 -18.100546 -140.797278 -12.130438 92.874689 -161.238212 19.125895 135.252009 -5.603368 -32.87098 -3.50895 -2.399084 26.244116 -1.145518 -159.692142 -4.482256 159.355573 -0.039041 7.825708 13.700861 15.50778 30.914408 -6.741392 -8.779477 -44.665541 3.207482 141.479221 75.793619 157.142265 -126.136254 10.382138 -144.205525 179.089524 30.79186 -146.999993 -2.099042 -1.694568 0.865723 113.003406 -0.277514 -109.275103 163.505399 -31.986924 -125.687204 1.227434 29.651261 4.26995 31.258643 52.342159 -31.022597 169.757918 -53.091278 -157.553682 69.887027 67.808192 -92.977975 -100.42867 85.395715 91.798618 160.694042 30.960858 138.932612 169.585275 24.510382 132.475231 -0.620897 1.770444 -0.640967 -9.712537 3.693446 0.437283 2.675103 44.124821 71.536012 -152.259741 86.154328 64.477229 125.305052 73.294056 55.851669 -136.867936 -2.057197 93.036139 82.986097 -4.343083 99.658391 -72.244237 17.106974 166.181323
-16.4144 50.5876 15.9449 -170.07353 19.904977 -169.937919 7.210451 6.886343 -180.0 -2.044305 2.837362 -173.649906 10.763393 22.227428 73.584692 -38.750785 -1.426123 -77.105325 10.325649 1.024482 11.30218 11.27165 0.716642 7.252518 1.87561 -14.173611 -7.44085 54.862207 17.832357 -25.761635 168.082597 -1.117972 58.995531 -164.115698 24.409135 132.954528 -2.654372 10.952671 3.792205 -158.542753 -61.465176 127.921812 -149.838529 -39.519391 137.070165 -131.30997 -20.602185 131.361438 -87.25957 58.225844 67.57461 2.437695 -12.972646 17.293637 1.314195 42.803812 4.849121 -7.903303 27.95597 14.439638 -27.07899 -51.770714 -25.904897 -21.002531 -24.930029 -8.447467 -6.631787 -33.318391 2.736176 111.66721 -9.949119 177.542381 172.339701 -21.089016 136.252912 6.39919 33.653018 -0.842952 85.361468 40.11486 -48.299524 -30.717197 -27.427315 -20.075229 18.743412 18.488388 -7.704006 11.237571 27.582341 -6.058244 154.399092 -6.954761 -144.626226 6.862771 43.913985 -16.582416 138.191566 -0.691464 -175.484268 -22.555167 38.618767 0.879677 100.563467 -43.426074 89.837508 149.490399 34.766004 134.419097 0.077724 3.454518 0.128428 -12.671298 -2.200514 99.691409 45.406323 -4.834987 -80.698351 -117.905748 23.067746 27.139826 -55.412022 35.863547 -59.867919 140.831826 4.353329 -95.323256 -55.952621 -47.533918 100.368309 -28.901413 -10.632251 25.347991
